<svg xmlns="http://www.w3.org/2000/svg" width="1600" height="900" viewBox="0 0 1600 900" role="img" aria-label="REAL SCHLÄGT CITY">
  <defs>
    <linearGradient id="bg" x1="0" y1="0" x2="1" y2="1">
      <stop offset="0%" stop-color="#0f172a"/>
      <stop offset="55%" stop-color="#1d4ed8"/>
      <stop offset="100%" stop-color="#22d3ee"/>
    </linearGradient>
    <radialGradient id="glow" cx="72%" cy="18%" r="70%">
      <stop offset="0%" stop-color="rgba(255,255,255,.22)"/>
      <stop offset="100%" stop-color="rgba(255,255,255,0)"/>
    </radialGradient>
  </defs>
  <rect width="1600" height="900" fill="url(#bg)"/>
  <rect width="1600" height="900" fill="url(#glow)"/>
  <g opacity=".35">
    <circle cx="140" cy="130" r="180" fill="rgba(255,255,255,.12)"/>
    <circle cx="1550" cy="860" r="260" fill="rgba(255,255,255,.08)"/>
  </g>
  
  <g>
    <path d="M1180 130 L1230 220 L1330 220 L1250 285 L1280 380 L1180 325 L1080 380 L1110 285 L1030 220 L1130 220 Z" fill="rgba(255,255,255,.22)"/>
    <text x="1045" y="500" fill="#cffafe" font-family="Barlow Condensed, Arial" font-size="145" font-weight="900">2:1</text>
    <circle cx="300" cy="620" r="130" fill="rgba(255,255,255,.11)"/>
    <path d="M240 620 L360 620 M300 560 L300 680" stroke="#e0f2fe" stroke-width="10"/>
  </g>
  <rect x="0" y="680" width="1600" height="220" fill="rgba(0,0,0,.35)"/>
  <text x="90" y="778" fill="rgba(255,255,255,.95)" font-family="Barlow Condensed, Arial, sans-serif" font-size="88" font-weight="900" letter-spacing="4">REAL SCHLÄGT CITY</text>
  <text x="90" y="842" fill="rgba(255,255,255,.82)" font-family="Barlow, Arial, sans-serif" font-size="34" font-weight="700" letter-spacing="1.5">K.O.-ABEND 2:1</text>
  <text x="90" y="886" fill="rgba(255,255,255,.65)" font-family="Barlow Condensed, Arial, sans-serif" font-size="24" font-weight="700" letter-spacing="2.5">FUSSBALLGENIE.DE · ORIGINAL ARTWORK</text>
</svg>