<svg xmlns="http://www.w3.org/2000/svg" width="1600" height="900" viewBox="0 0 1600 900" role="img" aria-label="SCHALKE 2:2">
  <defs>
    <linearGradient id="bg" x1="0" y1="0" x2="1" y2="1">
      <stop offset="0%" stop-color="#0f172a"/>
      <stop offset="55%" stop-color="#1e40af"/>
      <stop offset="100%" stop-color="#0284c7"/>
    </linearGradient>
    <radialGradient id="glow" cx="72%" cy="18%" r="70%">
      <stop offset="0%" stop-color="rgba(255,255,255,.22)"/>
      <stop offset="100%" stop-color="rgba(255,255,255,0)"/>
    </radialGradient>
  </defs>
  <rect width="1600" height="900" fill="url(#bg)"/>
  <rect width="1600" height="900" fill="url(#glow)"/>
  <g opacity=".35">
    <circle cx="140" cy="130" r="180" fill="rgba(255,255,255,.12)"/>
    <circle cx="1550" cy="860" r="260" fill="rgba(255,255,255,.08)"/>
  </g>
  
  <g>
    <rect x="930" y="150" width="530" height="320" rx="20" fill="rgba(255,255,255,.08)"/>
    <text x="1030" y="340" fill="#dbeafe" font-family="Barlow Condensed, Arial" font-size="150" font-weight="900">2:2</text>
    <path d="M240 300 L600 300" stroke="#bfdbfe" stroke-width="10"/>
    <path d="M600 300 L560 260 M600 300 L560 340" stroke="#bfdbfe" stroke-width="10" fill="none"/>
    <path d="M600 420 L240 420" stroke="#bfdbfe" stroke-width="10"/>
    <path d="M240 420 L280 380 M240 420 L280 460" stroke="#bfdbfe" stroke-width="10" fill="none"/>
  </g>
  <rect x="0" y="680" width="1600" height="220" fill="rgba(0,0,0,.35)"/>
  <text x="90" y="778" fill="rgba(255,255,255,.95)" font-family="Barlow Condensed, Arial, sans-serif" font-size="88" font-weight="900" letter-spacing="4">SCHALKE 2:2</text>
  <text x="90" y="842" fill="rgba(255,255,255,.82)" font-family="Barlow, Arial, sans-serif" font-size="34" font-weight="700" letter-spacing="1.5">FÜHRUNG VERSPIELT</text>
  <text x="90" y="886" fill="rgba(255,255,255,.65)" font-family="Barlow Condensed, Arial, sans-serif" font-size="24" font-weight="700" letter-spacing="2.5">FUSSBALLGENIE.DE · ORIGINAL ARTWORK</text>
</svg>