<svg xmlns="http://www.w3.org/2000/svg" width="1600" height="900" viewBox="0 0 1600 900" role="img" aria-label="SCORER RADAR">
  <defs>
    <linearGradient id="bg" x1="0" y1="0" x2="1" y2="1">
      <stop offset="0%" stop-color="#111827"/>
      <stop offset="55%" stop-color="#0f766e"/>
      <stop offset="100%" stop-color="#14b8a6"/>
    </linearGradient>
    <radialGradient id="glow" cx="72%" cy="18%" r="70%">
      <stop offset="0%" stop-color="rgba(255,255,255,.22)"/>
      <stop offset="100%" stop-color="rgba(255,255,255,0)"/>
    </radialGradient>
  </defs>
  <rect width="1600" height="900" fill="url(#bg)"/>
  <rect width="1600" height="900" fill="url(#glow)"/>
  <g opacity=".35">
    <circle cx="140" cy="130" r="180" fill="rgba(255,255,255,.12)"/>
    <circle cx="1550" cy="860" r="260" fill="rgba(255,255,255,.08)"/>
  </g>
  
  <g>
    <rect x="930" y="130" width="520" height="360" rx="24" fill="rgba(255,255,255,.08)"/>
    <line x1="980" y1="430" x2="1410" y2="430" stroke="rgba(255,255,255,.35)" stroke-width="5"/>
    <rect x="1000" y="300" width="70" height="130" fill="#99f6e4"/>
    <rect x="1100" y="250" width="70" height="180" fill="#5eead4"/>
    <rect x="1200" y="220" width="70" height="210" fill="#2dd4bf"/>
    <rect x="1300" y="270" width="70" height="160" fill="#14b8a6"/>
    <circle cx="360" cy="290" r="145" fill="rgba(255,255,255,.09)"/>
    <path d="M260 350 C320 250, 420 250, 470 350" stroke="#99f6e4" stroke-width="12" fill="none"/>
  </g>
  <rect x="0" y="680" width="1600" height="220" fill="rgba(0,0,0,.35)"/>
  <text x="90" y="778" fill="rgba(255,255,255,.95)" font-family="Barlow Condensed, Arial, sans-serif" font-size="88" font-weight="900" letter-spacing="4">SCORER RADAR</text>
  <text x="90" y="842" fill="rgba(255,255,255,.82)" font-family="Barlow, Arial, sans-serif" font-size="34" font-weight="700" letter-spacing="1.5">DATEN DER RÜCKRUNDE</text>
  <text x="90" y="886" fill="rgba(255,255,255,.65)" font-family="Barlow Condensed, Arial, sans-serif" font-size="24" font-weight="700" letter-spacing="2.5">FUSSBALLGENIE.DE · ORIGINAL ARTWORK</text>
</svg>